<svg class="svg-icon" style="width: 1em; height: 1em;vertical-align: middle;fill: currentColor;overflow: hidden;" viewBox="0 0 1024 1024" version="1.1" xmlns="http://www.w3.org/2000/svg"><path d="M55.466667 968.533333c-17.066667-17.066667-17.066667-42.666667 0-59.733333l228.266666-228.266667-185.6-185.6c-10.666667-10.666667-14.933333-27.733333-10.666666-42.666666 4.266667-14.933333 17.066667-25.6 32-29.866667l202.666666-38.4 196.266667-196.266667 61.866667-121.6c6.4-12.8 17.066667-21.333333 32-23.466666 12.8-2.133333 27.733333 2.133333 36.266666 12.8l320 320c10.666667 10.666667 14.933333 23.466667 12.8 36.266666s-10.666667 25.6-23.466666 32l-121.6 61.866667-196.266667 196.266667-38.4 202.666666c-2.133333 14.933333-14.933333 27.733333-29.866667 32-4.266667 2.133333-8.533333 2.133333-12.8 2.133334-10.666667 0-21.333333-4.266667-29.866666-12.8l-185.6-185.6L115.2 968.533333c-8.533333 8.533333-19.2 12.8-29.866667 12.8s-21.333333-4.266667-29.866666-12.8z m160-475.733333l315.733333 315.733333 21.333333-113.066666-224-224-113.066666 21.333333z m369.066666-249.6l-181.333333 181.333333 98.133333 98.133334 98.133334 98.133333 181.333333-181.333333c4.266667-4.266667 6.4-6.4 10.666667-8.533334l74.666666-38.4-236.8-234.666666-38.4 74.666666c0 4.266667-4.266667 8.533333-6.4 10.666667z" fill="#2F3CF4" /></svg>